<svg width="41" height="34" viewBox="0 0 41 34" fill="none" xmlns="http://www.w3.org/2000/svg">
<path d="M39.3153 4.40497C38.6869 4.68368 38.0408 4.91891 37.3807 5.10988C38.1622 4.22601 38.7581 3.186 39.1218 2.04794C39.2034 1.79284 39.1189 1.51362 38.9092 1.34678C38.6998 1.17981 38.4088 1.15981 38.1782 1.29646C36.7763 2.12794 35.2638 2.72549 33.6778 3.07491C32.0803 1.51388 29.9105 0.625488 27.6674 0.625488C22.9325 0.625488 19.0804 4.47749 19.0804 9.2122C19.0804 9.5851 19.104 9.95594 19.1507 10.3216C13.2753 9.80575 7.81293 6.91788 4.06197 2.31671C3.92829 2.15271 3.72235 2.06433 3.51151 2.08123C3.30055 2.09775 3.111 2.21671 3.00442 2.39955C2.24364 3.70497 1.84145 5.198 1.84145 6.7171C1.84145 8.78613 2.58016 10.7492 3.88506 12.2832C3.48829 12.1457 3.10326 11.974 2.73577 11.77C2.53848 11.6602 2.29771 11.6619 2.10171 11.7743C1.90558 11.8867 1.78261 12.0934 1.77745 12.3193C1.77655 12.3574 1.77655 12.3954 1.77655 12.434C1.77655 15.5224 3.43874 18.3029 5.98003 19.8184C5.76171 19.7966 5.54351 19.765 5.32674 19.7236C5.10326 19.6808 4.87345 19.7592 4.72274 19.9296C4.57177 20.0999 4.52184 20.3374 4.59138 20.5541C5.53203 23.4909 7.95384 25.651 10.8816 26.3096C8.45332 27.8305 5.67642 28.6272 2.76132 28.6272C2.15306 28.6272 1.54132 28.5914 0.94261 28.5206C0.645191 28.4852 0.360804 28.6608 0.259514 28.9437C0.158223 29.2267 0.265578 29.5421 0.51861 29.7043C4.26351 32.1055 8.59371 33.3747 13.0408 33.3747C21.7833 33.3747 27.2523 29.2521 30.3007 25.7936C34.102 21.4812 36.2821 15.7732 36.2821 10.1334C36.2821 9.89775 36.2785 9.65981 36.2713 9.42265C37.771 8.29271 39.0622 6.92523 40.1129 5.35349C40.2725 5.11478 40.2553 4.7993 40.0704 4.57955C39.8857 4.35968 39.578 4.28859 39.3153 4.40497Z" fill="black"/>
</svg>
